<?xml version="1.0" encoding="UTF-8" standalone="no"?>
<svg
   xmlns:dc="http://purl.org/dc/elements/1.1/"
   xmlns:cc="http://creativecommons.org/ns#"
   xmlns:rdf="http://www.w3.org/1999/02/22-rdf-syntax-ns#"
   xmlns:svg="http://www.w3.org/2000/svg"
   xmlns="http://www.w3.org/2000/svg"
   xmlns:xlink="http://www.w3.org/1999/xlink"
   xmlns:sodipodi="http://sodipodi.sourceforge.net/DTD/sodipodi-0.dtd"
   xmlns:inkscape="http://www.inkscape.org/namespaces/inkscape"
   sodipodi:docname="Zeichnung.svg"
   inkscape:version="1.1-dev (d3cbf63a92, 2019-12-19)"
   id="svg8"
   version="1.1"
   viewBox="0 0 135.46667 135.46667"
   height="512"
   width="512">
  <defs
     id="defs2" />
  <sodipodi:namedview
     guidetolerance="1"
     gridtolerance="1"
     objecttolerance="1"
     inkscape:window-maximized="1"
     inkscape:window-y="27"
     inkscape:window-x="70"
     inkscape:window-height="836"
     inkscape:window-width="1530"
     units="px"
     showgrid="false"
     inkscape:document-rotation="0"
     inkscape:current-layer="layer3"
     inkscape:document-units="px"
     inkscape:cy="251.97819"
     inkscape:cx="264.2719"
     inkscape:zoom="1.2753907"
     inkscape:pageshadow="2"
     inkscape:pageopacity="0.0"
     borderopacity="1.0"
     bordercolor="#666666"
     pagecolor="#ffffff"
     id="base" />
  <metadata
     id="metadata5">
    <rdf:RDF>
      <cc:Work
         rdf:about="">
        <dc:format>image/svg+xml</dc:format>
        <dc:type
           rdf:resource="http://purl.org/dc/dcmitype/StillImage" />
        <dc:title></dc:title>
      </cc:Work>
    </rdf:RDF>
  </metadata>
  <g
     style="display:none"
     inkscape:label="Erde"
     id="layer4"
     inkscape:groupmode="layer">
    <image
       sodipodi:absref="/home/moritz/Bilder/Bildschirmfoto vom 2019-12-20 17-37-14.png"
       xlink:href="../../../Bilder/Bildschirmfoto%20vom%202019-12-20%2017-37-14.png"
       y="-6.1676154"
       x="-3.9504511"
       width="144.93718"
       height="148.2569"
       preserveAspectRatio="none"
       id="image926" />
  </g>
  <g
     style="display:inline"
     inkscape:label="Meer"
     id="layer5"
     inkscape:groupmode="layer">
    <circle
       r="67.733337"
       style="display:inline;fill:#00a8f0;fill-opacity:1;fill-rule:evenodd;stroke-width:0.247519"
       id="path43-3-6"
       cx="67.733337"
       cy="67.733337" />
  </g>
  <g
     style="display:inline"
     inkscape:label="Kontinente"
     id="layer3"
     inkscape:groupmode="layer">
    <path
       inkscape:connector-curvature="0"
       id="path950"
       d="m 21.807057,51.489254 -0.432481,0.05383 -1.103113,1.284954 -0.69708,0.337854 -0.719103,-0.08186 -0.775234,0.442998 -0.560426,0.626337 -0.580243,0.401281 -0.747509,1.510516 -0.561214,0.812483 -1.037582,0.344895 -1.056814,-0.139052 -0.647988,0.411036 -0.0054,0.415859 -0.99217,0.607673 -1.794373,1.774735 -0.9224012,0.782992 -0.4766387,-0.128463 -0.1462651,1.43042 0.058708,1.542965 -0.3394935,1.299086 -0.3935524,1.723387 -0.9545161,1.695948 -0.3885912,0.684059 0.2457447,1.152983 -0.4241731,2.127398 0.4812038,0.836485 0.1716321,1.204929 0.359233,1.566124 0.5009189,2.968146 0.4861801,1.583883 1.9938277,4.442479 0.240259,0.858494 0.854097,-0.06116 0.411822,-0.04838 1.0841,0.833795 0.797974,0.295727 0.897346,1.080844 0.378578,0.302443 1.135852,0.179385 1.383557,0.03027 1.285553,0.305033 1.304694,0.452715 0.598183,0.555654 0.314576,1.264476 0.665525,1.381239 0.866038,0.365614 1.610405,0.410224 0.517836,1.051689 0.968639,0.772205 -0.08123,1.647262 -0.462997,0.961332 0.1994,0.940472 -0.639991,1.033436 0.812127,1.308487 1.586029,1.98695 1.177427,2.62476 1.62378,2.7149 -0.332835,0.78312 1.229831,2.18381 0.116522,0.51402 -0.643276,0.50374 -0.4279,1.65867 -0.03909,1.61406 1.323563,1.52582 2.433555,2.71448 1.580322,2.47755 1.571347,1.60721 1.313249,1.04803 1.072843,0.86744 3.065458,2.57908 2.640483,0.62347 2.732307,0.6365 2.045528,0.33632 1.764713,-0.58096 1.506892,-0.71252 0.896181,-0.65497 0.09336,-1.09897 2.27796,-0.40431 0.281085,-0.86997 -0.417063,-0.7788 -1.027914,-1.38857 3.389183,-1.47008 2.183892,-0.41682 1.018593,-1.017 0.06661,-1.50362 -0.514236,-2.69916 -1.348362,-1.60521 0.166412,-1.39024 -0.889685,-0.95263 1.729475,-2.50352 0.466972,-0.90099 2.237007,-1.63277 1.402852,-1.34924 6.005193,-4.27271 2.390738,-4.045264 1.093536,-1.593853 0.01733,-1.062529 0.468591,-0.328303 -0.297059,-0.370602 0.217993,-0.994492 -0.116724,-0.288883 -0.45026,0.05119 -1.946317,0.738949 c 0,0 -2.491499,0.432372 -2.558468,0.458354 -0.06697,0.02598 -2.079845,0.257429 -2.079845,0.257429 l -1.42332,0.5178 -1.915666,-1.680813 0.588942,-0.616707 -1.278573,-1.67308 -0.759288,-0.422822 -0.685123,-0.886098 -1.304901,-0.606946 -0.974783,-0.89811 -0.204034,-1.762122 -1.79048,-2.172269 -0.333206,-1.570532 0.143873,-2.077607 -1.804072,-1.661178 -0.425225,-1.915295 -2.438385,-7.038989 -0.238199,-2.235689 -0.436014,-0.821317 -2.79182,1.098944 -4.191127,-2.113185 -1.851872,-1.252352 -0.709557,-1.009028 -1.837558,0.385212 -0.944467,2.254372 -1.163492,0.01143 -2.357538,-2.090016 -0.271397,-1.565309 -1.6681,-1.084461 -0.607774,-0.08277 -1.160124,-1.154372 0.666933,-1.363096 0.473006,-0.597593 -0.434457,-1.514401 0.646055,-0.793967 -0.83675,-1.060765 -0.880015,0.125 -1.412796,-0.610341 -1.493239,-0.09159 -0.649386,-0.92587 -2.197362,-0.521139 -1.286868,0.272335 -0.44745,-0.03769 -1.280929,0.391436 -0.602462,-0.895504 -0.941957,-0.141441 z"
       style="fill:#ffffff;fill-opacity:1;stroke:#000000;stroke-width:0.264583px;stroke-linecap:butt;stroke-linejoin:miter;stroke-opacity:1" />
    <path
       inkscape:connector-curvature="0"
       id="path952"
       d="m 72.043459,118.52714 -0.595781,0.77604 -0.936647,0.29053 -0.442563,0.71073 -1.16392,0.51495 -1.635882,0.54166 -1.134028,0.47339 -0.130157,0.69652 0.03279,0.69996 0.562123,0.65922 -0.972976,1.01842 -0.518914,0.9076 -0.03596,0.4215 0.545303,-0.0729 -0.03197,0.93664 0.961728,0.69048 1.634525,0.19063 1.230172,-0.5043 0.931111,-1.38591 1.169437,-2.07133 0.800476,-2.22765 0.385093,-1.11267 0.651185,0.6199 0.129328,-0.28824 -0.233862,-0.91265 -0.36593,-1.32187 -0.49163,-0.4194 z"
       style="fill:#ffffff;fill-opacity:1;stroke:#000000;stroke-width:0.264583px;stroke-linecap:butt;stroke-linejoin:miter;stroke-opacity:1" />
    <path
       inkscape:connector-curvature="0"
       id="path954"
       d="m 28.522386,44.416722 -0.96211,-0.688626 -0.540308,-0.104415 -0.805778,-0.762498 -0.847789,-0.761119 -0.55852,0.04695 -0.368287,0.188868 -0.600118,1.116197 -0.404456,0.77733 -0.959517,1.169149 -0.844249,1.047867 -0.374981,0.574325 0.300341,0.453126 -0.819867,1.288645 0.428862,0.659704 h 0.267812 l 0.340323,0.297675 0.02362,1.050311 0.306803,0.454168 0.610945,-0.278416 0.761143,0.559642 0.757823,0.21877 0.341001,0.04506 1.019518,-0.476597 0.758098,-0.343588 0.630123,-0.474085 0.06778,-0.588328 0.26475,-0.586917 0.936418,-0.57459 0.807564,-0.51556 0.903555,0.04429 1.050076,-0.251206 0.370562,-1.177261 0.49425,-0.367133 0.959958,-0.03582 0.389409,1.026615 1.320908,-0.138684 0.605864,-0.345501 0.896557,-0.156147 0.575559,0.256665 0.182655,0.324688 -0.403244,0.411232 0.542494,1.55299 0.433792,0.832057 0.462542,1.454623 0.613953,0.192538 0.201191,0.655928 0.339326,0.939879 0.520838,1.394632 -0.56982,1.01943 -1.126697,0.09809 -1.184719,-0.686128 -0.755965,0.307274 1.763032,2.141323 0.585687,-1.096819 1.550125,-0.739296 0.68633,-0.551874 -0.341678,-0.865121 0.342887,-0.623752 0.419835,-0.05192 0.679244,0.459179 -0.01892,0.288681 0.387422,-0.359238 -1.363512,-1.868537 -0.313645,-0.719802 -0.676034,-0.738013 -0.482693,-2.893931 -0.07087,-1.122386 0.382241,-0.343323 0.933013,-0.127723 -0.260196,0.903322 0.9482,-0.07842 -0.07775,1.342533 0.565642,1.234223 0.959493,1.371211 0.78459,1.305592 -0.355378,1.861849 0.714264,2.482424 0.02679,2.239532 0.985491,0.52438 1.093579,-1.100606 0.639627,-0.497393 -0.384079,-1.452951 1.009742,-0.358926 1.243365,-0.0603 0.397168,2.035866 1.171575,2.248122 1.001512,0.623144 1.115118,0.654423 0.695185,-0.534903 1.458407,0.798616 1.161153,0.172283 2.460382,-0.535625 -0.398322,2.660507 -1.231826,2.126081 -1.099164,2.278893 -2.099046,-0.410781 0.122669,2.058776 1.480452,2.551705 0.731467,-0.276921 1.121278,0.931871 1.344639,2.867557 1.674215,2.18948 0.67319,1.772901 -0.330486,1.620017 1.289989,0.990682 0.8997,0.97122 0.745845,1.682311 1.667645,1.629846 -0.225378,1.474362 0.46772,2.346185 0.857972,1.203923 1.642708,0.119062 2.570097,-0.907875 6.382676,-2.613988 3.304709,-2.19932 2.955841,-2.744423 1.896726,-3.601974 0.230209,-0.939657 -1.174808,-1.055309 -2.144848,-0.454004 -1.223587,-2.359427 -3.048195,2.582516 -1.624293,0.172291 c 0,0 -0.899504,-1.086929 -0.765869,-0.986703 0.133633,0.100227 0.480682,-1.495462 0.480682,-1.495462 l -0.739415,-0.112302 -0.634648,0.592211 -3.173489,-4.447034 0.857234,-1.163069 1.581126,-0.2853 2.083768,3.095011 3.566317,1.471684 1.040783,-0.958141 0.97731,-0.300998 0.833784,1.775013 4.708787,-0.01196 1.461051,-0.0082 3.933708,-1.142018 1.226312,1.307822 2.682645,1.443382 -0.38731,0.735279 1.528998,1.265754 1.461278,-0.627981 0.77288,-1.560708 0.684985,3.429198 2.770101,6.415818 2.1,2.962368 1.38717,2.201608 1.62186,-2.179161 0.98642,-1.810851 -0.59995,-5.672367 3.07752,-4.782064 1.32448,-2.88013 0.83935,-2.375487 1.47663,-1.156909 1.01982,-1.15882 0.72575,-0.0981 1.45249,1.587889 1.52968,1.178808 0.73206,2.969935 1.8591,-2.321544 0.90046,2.493629 1.14927,1.456513 0.0503,4.351211 1.74935,2.692175 0.61591,1.881216 1.53159,0.233448 -0.92012,-3.944041 -2.3257,-2.23579 -0.008,-4.71341 1.0517,0.281597 1.5384,0.73865 0.93541,1.225571 1.39382,-3.828542 0.14197,-3.658433 -3.35147,-3.944322 0.30786,-3.985175 0.5503,-0.582821 1.2638,-2.061732 0.46174,-3.042986 0.46922,-2.780652 -1.01193,-3.757702 -0.48443,-3.1128 -1.75398,-2.303642 -2.40675,-2.13523 -0.96716,-3.900673 -0.85141,0.239887 0.22208,1.265648 -0.56189,-0.754652 -0.54696,0.435858 -0.74533,-0.907312 0.35264,-0.964342 0.48142,-2.763632 0.65357,0.449049 0.96584,0.663495 1.10474,1.245394 1.15417,1.633315 -0.20004,-2.276226 -1.09801,-1.250619 -0.931,-0.754195 -1.12923,-0.457197 -1.24378,-3.096647 -1.18763,-1.991228 -3.48867,-5.702978 -3.68526,-3.576067 -2.93158,-1.983021 0.29653,1.068646 -0.97588,0.323339 -1.80691,-2.406362 -2.70887,-2.051201 -1.65736,-2.842434 -0.92607,-1.119809 L 97.693332,9.0561885 97.035408,7.9360114 95.878226,6.5922077 92.899621,5.4719594 90.257638,4.2632322 l -1.098003,0.038848 -1.952881,-0.6927696 -1.07123,-0.9617364 -1.104143,0.066402 0.739529,1.3993458 3.056125,1.8187917 0.896171,0.6589358 -1.105549,0.082962 -0.148354,2.6309987 1.382128,0.7287008 0.263501,1.200635 c 0,0 0.816462,0.794823 0.6653,0.794823 -0.151159,0 -2.885318,-0.03341 -2.885318,-0.03341 l -2.038253,2.036182 0.227431,1.325873 -1.920489,-2.561209 -1.758976,-0.493822 -1.814971,0.575513 0.756653,0.897091 -1.191127,1.809384 c 0,0 -1.498307,3.914704 -1.624754,3.955526 -0.126447,0.04082 -2.299401,-0.212594 -2.299401,-0.212594 l -0.04286,2.303758 1.903997,1.611785 -0.104145,0.364719 -4.677278,-1.169543 1.105916,1.146974 -0.539581,0.576434 -2.90754,-0.03879 -4.333513,2.336214 -5.125405,-3.84589 -1.240944,-1.075727 -3.901866,0.752531 -4.140674,2.111303 -6.811378,2.95312 -2.258671,3.603884 0.655733,0.730652 c 0,0 2.038048,-0.959061 2.151319,-0.981159 0.113271,-0.02209 -0.176331,3.364373 -0.176331,3.364373 l 1.427204,0.787143 2.300608,-2.112888 1.413087,-0.861537 -0.09686,-1.618096 1.263957,-1.679578 3.919212,-2.256049 0.257763,1.180359 c 0,0 -2.415665,1.341374 -2.462911,1.591302 -0.04725,0.249931 -0.934718,2.105623 -0.934718,2.105623 l 1.262362,1.143736 2.294929,-0.190183 1.134936,0.414806 -1.438071,0.629928 -2.279039,-0.354938 -0.425744,0.968531 -0.177546,1.388798 -0.932087,0.279431 -0.111665,-0.855075 -0.375737,0.02318 -1.26392,1.221766 -0.672119,1.680985 -1.726205,-0.104007 -0.352531,-0.542142 -2.65077,0.52597 -0.375952,-0.680328 -1.674119,-0.333931 -0.271482,-1.012187 1.952647,-2.531885 -0.231791,-0.114221 -1.350418,0.174982 -1.282739,2.981648 -2.089719,0.23531 -2.358038,0.927722 -1.766568,0.650319 -2.374011,1.033558 -0.115292,-0.791877 -0.877776,0.876141 -1.366124,-0.708744 -0.776623,0.751136 0.525629,1.125413 -0.09703,2.031037 -1.272051,2.068177 z"
       style="fill:#ffffff;fill-opacity:1;stroke:#000000;stroke-width:0.264583px;stroke-linecap:butt;stroke-linejoin:miter;stroke-opacity:1" />
    <path
       inkscape:connector-curvature="0"
       id="path956"
       d="m 35.426762,37.116434 -2.755985,-0.757209 -0.788617,0.01315 0.771673,-0.740934 0.916348,-0.142272 -0.723567,-0.689192 1.717924,-1.191387 0.942671,-0.13712 0.378393,-1.306822 -0.792554,-0.202335 -1.691761,1.139574 -1.172126,0.694949 -1.182629,-0.141452 -0.487143,-0.836321 0.80862,-0.352899 2.253649,-1.512064 0.587581,-0.359143 0.920261,0.216757 1.498595,-1.194527 1.822365,-1.547966 0.744315,0.658844 -1.215863,0.762492 0.980247,0.300329 -1.613509,1.179684 -0.31591,1.980166 -0.26874,1.719214 -0.321267,0.617858 0.50478,0.368745 z"
       style="fill:#ffffff;fill-opacity:1;stroke:#000000;stroke-width:0.264583px;stroke-linecap:butt;stroke-linejoin:miter;stroke-opacity:1" />
    <path
       inkscape:connector-curvature="0"
       id="path958"
       d="m 133.31914,72.610342 -3.05519,12.101377 0.29707,0.70987 0.0918,0.872135 1.75723,-1.532014 0.58624,-3.412842 0.7785,-3.127592 -0.21126,-3.005006 0.49913,-2.062114 z"
       style="fill:#ffffff;fill-opacity:1;stroke:#000000;stroke-width:0.264583px;stroke-linecap:butt;stroke-linejoin:miter;stroke-opacity:1" />
    <path
       inkscape:connector-curvature="0"
       id="path960"
       d="m 123.35638,85.669776 2.10559,1.384787 1.44338,0.03781 0.42784,1.393108 0.86447,0.609944 0.43041,-1.211307 0.19542,1.081238 -1.44277,3.963318 -1.8318,-1.452248 -0.74429,-1.92896 -1.09273,-1.378972 -1.48352,-1.232453 z"
       style="fill:#ffffff;fill-opacity:1;stroke:#000000;stroke-width:0.264583px;stroke-linecap:butt;stroke-linejoin:miter;stroke-opacity:1" />
    <path
       inkscape:connector-curvature="0"
       id="path962"
       d="m 54.24131,48.683679 -2.707212,3.196232 -0.727175,1.209585 1.11112,1.887631 2.141276,0.773628 1.62688,-1.49814 2.297753,0.882296 1.508691,1.335296 4.391422,-0.826592 -0.354467,-1.333715 -1.261295,-1.334971 -2.43231,-2.043258 1.442644,-2.372908 -3.549058,0.99104 1.586537,1.16055 -2.968188,0.461674 -0.231238,-0.989801 0.633664,-0.488302 -1.727507,-0.956099 z"
       style="fill:#00a8f0;stroke:#000000;stroke-width:0.264583px;stroke-linecap:butt;stroke-linejoin:miter;stroke-opacity:1;fill-opacity:1" />
    <path
       inkscape:connector-curvature="0"
       id="path964"
       d="m 73.040835,48.883719 c -0.201833,0 -3.22675,1.727965 -3.22675,1.727965 l -0.802855,0.232675 0.09449,1.325443 2.564878,4.963692 -0.977767,2.846663 3.087632,1.761577 2.18359,-0.19789 -0.233418,-2.8311 -0.642575,-1.677789 1.105561,-1.086474 -0.880274,-0.961313 -0.760087,0.327892 -0.743839,-1.022556 -1.866984,-2.205688 0.503486,-1.146339 1.92477,-0.141264 1.314248,0.258273 -0.129497,-0.432869 -0.782553,-0.348509 -1.040731,-1.690952 z"
       style="fill:#00a8f0;stroke:#000000;stroke-width:0.264583px;stroke-linecap:butt;stroke-linejoin:miter;stroke-opacity:1;fill-opacity:1" />
    <path
       inkscape:connector-curvature="0"
       id="path966"
       d="m 53.158336,5.7595369 -6.578508,3.1676413 -5.961409,1.5092088 -7.49785,3.673524 -0.544949,2.178258 5.64347,-1.68501 5.694765,0.968595 6.485242,-1.692282 4.40236,-2.514783 3.907705,-0.683938 L 59.624157,8.634273 57.306458,6.4786292 54.746638,5.87661 Z"
       style="fill:#ffffff;fill-opacity:1;stroke:#000000;stroke-width:0.264583px;stroke-linecap:butt;stroke-linejoin:miter;stroke-opacity:1" />
    <path
       inkscape:connector-curvature="0"
       id="path968"
       d="m 40.197316,18.082932 -3.253433,1.998053 4.163827,0.726859 1.371947,-0.625683 z"
       style="fill:#ffffff;fill-opacity:1;stroke:#000000;stroke-width:0.264583px;stroke-linecap:butt;stroke-linejoin:miter;stroke-opacity:1" />
  </g>
  <g
     style="display:inline"
     inkscape:label="Hintergrund"
     id="layer2"
     inkscape:groupmode="layer">
    <circle
       r="66.675255"
       cy="67.73333"
       cx="67.733337"
       id="path43"
       style="fill:none;fill-opacity:1;fill-rule:evenodd;stroke:#0a3416;stroke-width:2.11617;stroke-miterlimit:4;stroke-dasharray:none;stroke-opacity:1" />
    <circle
       r="65.616669"
       style="display:inline;fill:none;fill-opacity:0;fill-rule:evenodd;stroke:#3e7e47;stroke-width:1.05833;stroke-miterlimit:4;stroke-dasharray:none;stroke-opacity:1"
       id="path43-3"
       cx="67.733337"
       cy="67.733337" />
  </g>
  <g
     style="display:none"
     id="layer1"
     inkscape:groupmode="layer"
     inkscape:label="Originalbild">
    <image
       sodipodi:absref="/home/moritz/Downloads/logo_transparent.png"
       xlink:href="../../../Downloads/logo_transparent.png"
       y="-7.5142512"
       x="-5.5643015"
       width="148.88884"
       height="153.57745"
       preserveAspectRatio="none"
       id="image21" />
  </g>
</svg>
