<?xml version="1.0" encoding="UTF-8" standalone="no"?>
<svg
   xmlns:dc="http://purl.org/dc/elements/1.1/"
   xmlns:cc="http://creativecommons.org/ns#"
   xmlns:rdf="http://www.w3.org/1999/02/22-rdf-syntax-ns#"
   xmlns:svg="http://www.w3.org/2000/svg"
   xmlns="http://www.w3.org/2000/svg"
   xmlns:sodipodi="http://sodipodi.sourceforge.net/DTD/sodipodi-0.dtd"
   xmlns:inkscape="http://www.inkscape.org/namespaces/inkscape"
   width="512"
   height="512"
   viewBox="0 0 135.5 135.5"
   version="1.1"
   id="svg22"
   sodipodi:docname="logo.svg"
   inkscape:version="0.92.4 5da689c313, 2019-01-14"
   inkscape:export-filename="/home/moritz/Documents/Websites/albertforfuture.de/themes/albertforfuture.de/assets/logo.png"
   inkscape:export-xdpi="96"
   inkscape:export-ydpi="96">
  <metadata
     id="metadata28">
    <rdf:RDF>
      <cc:Work
         rdf:about="">
        <dc:format>image/svg+xml</dc:format>
        <dc:type
           rdf:resource="http://purl.org/dc/dcmitype/StillImage" />
        <dc:title></dc:title>
      </cc:Work>
    </rdf:RDF>
  </metadata>
  <defs
     id="defs26" />
  <sodipodi:namedview
     pagecolor="#ffffff"
     bordercolor="#666666"
     borderopacity="1"
     objecttolerance="10"
     gridtolerance="10"
     guidetolerance="10"
     inkscape:pageopacity="0"
     inkscape:pageshadow="2"
     inkscape:window-width="1600"
     inkscape:window-height="835"
     id="namedview24"
     showgrid="false"
     inkscape:zoom="0.921875"
     inkscape:cx="192.92319"
     inkscape:cy="245.72393"
     inkscape:window-x="0"
     inkscape:window-y="0"
     inkscape:window-maximized="1"
     inkscape:current-layer="g14"
     inkscape:snap-global="true"
     inkscape:pagecheckerboard="true" />
  <circle
     cx="67.7"
     cy="67.7"
     r="67.7"
     fill="#00a8f0"
     fill-rule="evenodd"
     id="circle2"
     style="fill:#000000;fill-opacity:0" />
  <g
     stroke="#000"
     stroke-width=".3"
     id="g14"
     style="stroke:#160000;stroke-opacity:1">
    <path
       fill="#fff"
       d="M21.8 51.5h-.4l-1.1 1.3-.7.4-.7-.1-.8.4-.6.7-.6.4-.7 1.5-.6.8-1 .3-1-.1-.7.4v.4l-1 .6-1.8 1.8-1 .8-.4-.2-.1 1.5v1.5l-.3 1.3-.4 1.7-1 1.7-.4.7.3 1.2-.4 2.1.4.8.2 1.2.4 1.6.5 3 .5 1.6 2 4.4.2.9.8-.1h.5l1 .8.8.3 1 1 .3.4 1.1.1h1.4l1.3.4 1.3.4.6.6.3 1.3.7 1.3.9.4 1.6.4.5 1 1 .8-.1 1.7-.5 1 .2.9-.6 1 .8 1.3 1.6 2 1.2 2.6 1.6 2.8-.4.7 1.3 2.2v.5l-.6.5-.4 1.7v1.6l1.3 1.5 2.4 2.8 1.6 2.4 1.6 1.6 1.3 1 1 1 3.1 2.5 2.7.7 2.7.6 2 .3 1.8-.6 1.5-.7 1-.6V127l2.3-.4.3-.9-.4-.8-1-1.4 3.3-1.4 2.2-.4 1-1v-1.6l-.4-2.7-1.4-1.6.2-1.4-.9-1 1.7-2.4.5-1 2.2-1.6 1.4-1.3 6-4.3 2.4-4 1.1-1.6v-1l.5-.4-.3-.4.2-1v-.3h-.5l-2 .8-2.5.5-2.1.2-1.4.6-2-1.7.6-.6-1.2-1.7-.8-.4-.7-1-1.3-.5-1-1-.2-1.7-1.8-2.2-.3-1.5.2-2.1-1.9-1.7-.4-1.9-2.4-7-.3-2.3-.4-.8-2.8 1.1-4.2-2-1.8-1.3-.7-1-1.9.3-1 2.3h-1l-2.4-2-.3-1.7-1.7-1-.6-.1-1.1-1.2.6-1.3.5-.6-.4-1.6.6-.7-.8-1.1-1 .1-1.3-.6h-1.5l-.7-1-2.2-.5-1.2.2h-.5l-1.3.4-.6-.9-1-.1zm50.2 67l-.6.8-.9.3-.4.7-1.2.5-1.6.6-1.2.4-.1.7v.7l.6.7-1 1-.5 1v.3h.5v.9l1 .7 1.6.2 1.2-.5 1-1.4 1.1-2 .8-2.3.4-1.1.6.6.2-.3-.3-.9-.3-1.3-.5-.4z"
       id="path4"
       style="stroke:#160000;stroke-opacity:1;fill:#000000;fill-opacity:1" />
    <path
       style="fill:#000000;fill-opacity:1;stroke:#000000;stroke-width:1.13357937;stroke-opacity:1"
       d="M 326.09375 9.8242188 L 321.55859 10.203125 L 324.58203 15.492188 L 335.91797 22.292969 L 339.69531 24.939453 L 335.16211 24.939453 L 334.7832 35.140625 L 340.07422 37.785156 L 340.83008 42.320312 L 343.47461 45.34375 L 332.13867 45.34375 L 324.58203 52.900391 L 325.71484 58.189453 L 318.1582 48.365234 L 311.73438 46.476562 L 304.93359 48.744141 L 307.57812 52.144531 L 303.42188 58.945312 C 303.42188 58.945312 297.75377 73.682687 296.99805 74.060547 A 128.47232 128.47232 0 0 1 288.30664 72.927734 L 288.30664 81.617188 L 295.48633 87.664062 L 295.10938 89.175781 L 277.34961 84.640625 L 281.50586 89.175781 L 279.61719 91.441406 L 268.28125 91.441406 L 252.0332 100.13281 L 233.13867 85.396484 L 228.22656 81.617188 L 213.11328 84.263672 L 197.99805 92.197266 L 171.92578 103.5332 L 163.61328 117.13672 L 165.88086 119.78125 L 174.19336 116.00391 L 173.4375 128.84961 L 178.72852 131.87305 L 187.41797 123.56055 L 192.70898 120.91602 L 192.70898 114.86914 L 197.24219 108.44531 L 212.35742 99.755859 L 213.11328 104.28906 C 213.11328 104.28906 204.04388 109.58022 203.66602 110.33594 C 203.66602 111.46952 199.88867 118.26953 199.88867 118.26953 L 204.80078 122.80469 L 213.49023 122.04883 L 218.02539 123.56055 L 212.35742 125.82812 L 204.04492 124.69336 L 202.1543 128.47266 L 201.39844 133.38477 L 197.99805 134.51758 L 197.62109 131.11719 L 196.10938 131.11719 L 191.19727 136.0293 L 188.55273 142.45312 L 182.12891 142.07617 L 180.61719 139.80859 L 170.79297 141.69727 L 169.28125 139.42969 L 162.85742 137.91797 L 161.72461 134.14062 L 169.28125 124.69336 L 168.52539 124.31641 L 163.23633 124.69336 L 158.32422 136.0293 L 150.76562 137.16406 L 141.69727 140.56445 L 134.89648 142.83008 L 125.82812 146.60938 L 125.82812 143.58594 L 122.04883 146.98828 L 117.13672 143.58594 L 114.11328 146.60938 L 116.00391 150.76562 L 116.00391 158.32422 L 111.08984 166.25781 L 107.68945 167.76953 L 103.91211 165.125 L 102.02148 165.125 L 99 162.10156 L 95.976562 159.07812 L 93.708984 159.07812 L 92.197266 159.83398 L 89.929688 164.36914 L 88.419922 167.01367 L 84.640625 171.54883 L 81.617188 175.32617 L 80.484375 177.59375 L 81.617188 179.48242 L 78.216797 184.39648 L 80.105469 186.66211 L 80.861328 186.66211 L 82.373047 187.79688 L 82.373047 191.57422 L 83.507812 193.46484 L 85.773438 192.33008 L 88.796875 194.59766 L 91.441406 195.35352 L 92.953125 195.35352 L 96.732422 193.8418 L 99.755859 192.33008 L 102.02148 190.81836 L 102.02148 188.55273 L 103.15625 186.28516 L 106.93359 184.01758 L 109.95703 182.12891 L 113.35742 182.12891 L 117.13672 181.37305 L 118.64844 176.83789 L 120.53711 175.70508 L 124.31641 175.70508 L 125.44922 179.48242 L 130.36133 178.72852 L 133.00586 177.59375 L 136.4082 176.83789 L 138.29688 177.97266 L 139.05273 179.10547 L 137.54102 180.61719 L 139.42969 186.66211 L 141.32031 189.68555 L 142.83008 194.97656 L 145.47656 195.73047 L 146.23242 198.37695 L 147.36523 202.1543 L 149.25391 207.06641 L 146.98828 210.8457 L 143.20898 211.22266 L 138.29688 208.95703 L 135.65234 210.08984 L 142.07617 218.02539 L 144.3418 214.24609 L 150.38867 211.22266 L 153.0332 208.95703 L 151.52148 205.93359 L 153.0332 203.28906 L 154.54492 203.28906 L 157.18945 204.80078 L 157.18945 205.93359 L 158.32422 204.80078 L 153.41016 197.62109 L 152.27734 194.97656 L 149.63281 191.95312 L 147.36523 181.37305 L 147.36523 177.59375 L 148.49805 176.08203 L 152.27734 175.70508 L 151.14453 179.10547 L 154.92188 178.72852 L 154.54492 183.64062 L 156.43359 188.55273 L 160.21289 193.46484 L 163.23633 198.37695 L 161.72461 205.55664 L 164.36914 215.00195 L 164.36914 222.9375 L 168.14844 224.82617 L 172.30469 221.04883 L 174.94922 218.78125 L 173.4375 213.49023 L 177.2168 211.97852 L 181.75 211.97852 L 183.26172 219.53711 L 187.79688 228.22656 L 191.57422 230.49414 L 195.73047 232.76172 L 198.37695 230.87305 L 204.04492 233.89453 L 208.20117 234.65039 L 217.64648 232.38281 L 216.13672 242.58594 L 211.60156 250.52148 L 207.44531 259.21094 L 199.50977 257.70117 L 199.50977 265.25781 L 205.55664 275.08203 L 208.20117 273.94922 L 212.35742 277.72656 L 217.64648 288.30664 L 223.69336 296.61914 L 226.33789 303.42188 L 225.20508 309.4668 L 230.11719 313.24609 L 233.51758 317.02344 L 236.16211 323.07031 L 242.58594 329.49414 L 241.83008 334.7832 L 243.3418 343.85156 L 246.74219 348.38672 L 252.78906 348.76367 L 262.61328 345.36328 L 286.79492 335.53906 L 299.26562 327.22656 L 310.60156 317.02344 L 317.40234 303.04297 L 318.53516 299.64258 L 314.00195 295.86328 L 306.06641 293.97461 L 301.1543 284.90625 L 289.81836 294.73047 L 283.77344 295.48633 C 283.77344 295.48633 279.99428 291.70703 280.75 291.70703 C 281.12786 292.08489 282.63867 286.03906 282.63867 286.03906 L 279.61719 285.66211 L 277.34961 287.92969 L 265.25781 270.92578 L 268.6582 266.76953 L 274.70312 265.63477 L 282.26172 276.9707 L 295.86328 283.01758 L 299.64258 279.23828 L 303.42188 278.10547 L 306.82227 284.90625 L 329.87109 284.90625 L 344.98633 280.37109 L 349.51953 285.2832 L 359.72266 290.95117 L 358.21094 293.59766 L 363.87891 298.50977 L 369.54688 295.86328 L 372.57031 290.19727 L 374.83594 303.04297 L 385.41602 327.22656 L 393.35156 338.5625 L 398.64258 346.875 L 404.6875 338.5625 L 408.4668 331.76172 L 406.19922 310.22266 L 417.53516 292.08594 L 422.82422 281.50586 L 425.84766 272.4375 L 431.51562 267.90234 L 435.29492 263.74609 L 438.31641 263.36914 L 443.60742 269.41406 L 449.65234 273.57031 L 452.29883 284.90625 L 459.09961 276.21484 L 462.87891 285.66211 L 466.65625 290.95117 L 467.03516 307.57812 L 473.83594 317.7793 L 476.10352 324.95898 L 481.77148 325.71484 L 478.37109 310.60156 L 469.67969 302.28711 L 469.67969 284.5293 L 473.45898 285.66211 L 479.50391 288.30664 L 483.2832 293.21875 L 488.19531 278.48242 L 488.57227 264.87891 L 476.10352 249.76562 L 477.23633 234.65039 L 479.50391 232.76172 L 484.03906 224.82617 L 485.92773 213.49023 L 487.43945 202.91016 L 483.66016 188.55273 L 482.14844 176.83789 L 475.34766 168.14844 L 466.2793 160.21289 L 462.5 145.09766 L 459.47656 146.23242 L 460.23242 151.14453 L 457.9668 148.12109 L 456.07617 149.63281 L 453.05469 146.23242 L 454.56445 142.45312 L 456.45508 132.25 L 458.72266 134.14062 L 462.5 136.4082 L 466.65625 141.32031 L 471.19141 147.36523 L 470.43555 138.67383 L 466.2793 134.14062 L 462.5 131.11719 L 458.34375 129.60547 L 453.81055 117.89258 L 449.27539 110.33594 L 436.05078 88.796875 L 422.07031 75.193359 L 410.73438 67.636719 L 412.24414 71.416016 L 408.4668 72.927734 L 401.66406 63.857422 L 391.46289 56.300781 L 385.41602 45.34375 L 381.63867 41.1875 L 369.54688 34.007812 L 366.52344 29.851562 L 362.74609 24.939453 L 351.41016 20.783203 L 341.58594 16.248047 L 337.42969 16.248047 L 329.87109 13.603516 L 326.09375 9.8242188 z M 279.23828 183.26172 L 283.01758 189.68555 L 286.03906 190.81836 L 286.41797 192.70898 L 281.50586 191.57422 L 273.94922 191.95312 L 272.05859 196.48633 L 278.86133 205.17773 L 281.88281 208.95703 L 284.5293 207.82227 L 287.55078 211.60156 L 283.77344 215.38086 L 286.03906 221.80273 L 287.17383 232.38281 L 278.48242 233.13867 L 267.14648 226.7168 L 270.92578 216.13672 L 261.10156 197.24219 L 260.72266 191.95312 L 263.74609 191.19727 L 275.83789 184.77344 L 279.23828 183.26172 z M 232.00586 183.64062 L 226.33789 192.70898 L 235.78516 200.26562 L 240.31836 205.17773 L 241.83008 210.08984 L 225.20508 213.49023 L 219.53711 208.20117 L 210.8457 205.17773 L 204.80078 210.8457 L 196.48633 207.82227 L 191.95312 200.64258 L 194.59766 196.10938 L 204.80078 184.01758 L 208.20117 184.01758 L 215.00195 187.79688 L 212.35742 189.68555 L 213.11328 193.46484 L 224.44922 191.57422 L 218.40234 187.41797 L 232.00586 183.64062 z "
       transform="scale(0.26464844)"
       id="path6" />
    <path
       fill="#fff"
       d="M35.4 37.1l-2.7-.7h-.8l.8-.8.9-.1-.8-.7 1.8-1.2 1-.1.3-1.3-.8-.2-1.7 1.1-1.2.7-1.2-.1-.4-.9.8-.3 2.2-1.5.6-.4 1 .2 1.4-1.2 1.9-1.5.7.6-1.2.8 1 .3-1.7 1.2-.3 2-.2 1.7-.4.6.5.4zm97.9 35.5l-3 12.1.3.7v.9l1.8-1.5.6-3.5.8-3-.2-3 .5-2.1zm-9.9 13.1l2 1.4h1.5l.4 1.4.9.6.4-1.2.2 1-1.4 4-1.9-1.4-.7-2-1-1.3-1.6-1.3z"
       id="path8"
       style="stroke:#160000;stroke-opacity:1;fill:#000000;fill-opacity:1" />
    <path
       fill="#fff"
       d="M53.2 5.8l-6.6 3.1-6 1.5-7.5 3.7-.5 2.2 5.6-1.7 5.7 1 6.5-1.7 4.4-2.5 4-.7.8-2-2.3-2.2-2.6-.6zM40.2 18l-3.3 2 4.2.8 1.4-.6z"
       id="path12"
       style="stroke:#160000;stroke-opacity:1;fill:#000000;fill-opacity:1" />
  </g>
  <g
     fill="none"
     id="g20">
    <circle
       cx="67.7"
       cy="67.7"
       r="66.7"
       stroke="#0a3416"
       stroke-width="2.1"
       id="circle16"
       style="stroke:#000000;stroke-opacity:1" />
    <circle
       cx="67.7"
       cy="67.7"
       r="65.6"
       stroke="#3e7e47"
       stroke-width="1.1"
       id="circle18"
       style="stroke:#000000;stroke-opacity:0" />
  </g>
</svg>
