<?xml version="1.0" encoding="UTF-8" standalone="no"?>
<svg
   xmlns:dc="http://purl.org/dc/elements/1.1/"
   xmlns:cc="http://creativecommons.org/ns#"
   xmlns:rdf="http://www.w3.org/1999/02/22-rdf-syntax-ns#"
   xmlns:svg="http://www.w3.org/2000/svg"
   xmlns="http://www.w3.org/2000/svg"
   xmlns:sodipodi="http://sodipodi.sourceforge.net/DTD/sodipodi-0.dtd"
   xmlns:inkscape="http://www.inkscape.org/namespaces/inkscape"
   width="512"
   height="512"
   viewBox="0 0 135.5 135.5"
   version="1.1"
   id="svg22"
   sodipodi:docname="logo.svg"
   inkscape:version="0.92.4 5da689c313, 2019-01-14">
  <metadata
     id="metadata28">
    <rdf:RDF>
      <cc:Work
         rdf:about="">
        <dc:format>image/svg+xml</dc:format>
        <dc:type
           rdf:resource="http://purl.org/dc/dcmitype/StillImage" />
      </cc:Work>
    </rdf:RDF>
  </metadata>
  <defs
     id="defs26" />
  <sodipodi:namedview
     pagecolor="#ffffff"
     bordercolor="#666666"
     borderopacity="1"
     objecttolerance="10"
     gridtolerance="10"
     guidetolerance="10"
     inkscape:pageopacity="0"
     inkscape:pageshadow="2"
     inkscape:window-width="800"
     inkscape:window-height="835"
     id="namedview24"
     showgrid="false"
     inkscape:zoom="0.921875"
     inkscape:cx="207.17334"
     inkscape:cy="289.43327"
     inkscape:window-x="800"
     inkscape:window-y="0"
     inkscape:window-maximized="0"
     inkscape:current-layer="g14" />
  <circle
     cx="67.7"
     cy="67.7"
     r="67.7"
     fill="#00a8f0"
     fill-rule="evenodd"
     id="circle2"
     style="fill:#000000;fill-opacity:0" />
  <g
     stroke="#000"
     stroke-width=".3"
     id="g14"
     style="stroke:#160000;stroke-opacity:1">
    <path
       fill="#fff"
       d="M21.8 51.5h-.4l-1.1 1.3-.7.4-.7-.1-.8.4-.6.7-.6.4-.7 1.5-.6.8-1 .3-1-.1-.7.4v.4l-1 .6-1.8 1.8-1 .8-.4-.2-.1 1.5v1.5l-.3 1.3-.4 1.7-1 1.7-.4.7.3 1.2-.4 2.1.4.8.2 1.2.4 1.6.5 3 .5 1.6 2 4.4.2.9.8-.1h.5l1 .8.8.3 1 1 .3.4 1.1.1h1.4l1.3.4 1.3.4.6.6.3 1.3.7 1.3.9.4 1.6.4.5 1 1 .8-.1 1.7-.5 1 .2.9-.6 1 .8 1.3 1.6 2 1.2 2.6 1.6 2.8-.4.7 1.3 2.2v.5l-.6.5-.4 1.7v1.6l1.3 1.5 2.4 2.8 1.6 2.4 1.6 1.6 1.3 1 1 1 3.1 2.5 2.7.7 2.7.6 2 .3 1.8-.6 1.5-.7 1-.6V127l2.3-.4.3-.9-.4-.8-1-1.4 3.3-1.4 2.2-.4 1-1v-1.6l-.4-2.7-1.4-1.6.2-1.4-.9-1 1.7-2.4.5-1 2.2-1.6 1.4-1.3 6-4.3 2.4-4 1.1-1.6v-1l.5-.4-.3-.4.2-1v-.3h-.5l-2 .8-2.5.5-2.1.2-1.4.6-2-1.7.6-.6-1.2-1.7-.8-.4-.7-1-1.3-.5-1-1-.2-1.7-1.8-2.2-.3-1.5.2-2.1-1.9-1.7-.4-1.9-2.4-7-.3-2.3-.4-.8-2.8 1.1-4.2-2-1.8-1.3-.7-1-1.9.3-1 2.3h-1l-2.4-2-.3-1.7-1.7-1-.6-.1-1.1-1.2.6-1.3.5-.6-.4-1.6.6-.7-.8-1.1-1 .1-1.3-.6h-1.5l-.7-1-2.2-.5-1.2.2h-.5l-1.3.4-.6-.9-1-.1zm50.2 67l-.6.8-.9.3-.4.7-1.2.5-1.6.6-1.2.4-.1.7v.7l.6.7-1 1-.5 1v.3h.5v.9l1 .7 1.6.2 1.2-.5 1-1.4 1.1-2 .8-2.3.4-1.1.6.6.2-.3-.3-.9-.3-1.3-.5-.4z"
       id="path4"
       style="stroke:#160000;stroke-opacity:1;fill:#000000;fill-opacity:1" />
    <path
       fill="#fff"
       d="M28.5 44.4l-1-.7H27l-.8-.8-.8-.8h-.6l-.4.2-.6 1.2-.4.7-1 1.2-.8 1-.3.6.3.5-.9 1.3.5.6h.2l.4.3v1l.3.5.6-.3.8.6.7.2h.4l1-.4.8-.4.6-.4v-.6l.3-.6 1-.6.8-.5h.9l1-.2.4-1.2.5-.3h1l.3 1 1.3-.2.7-.3.9-.2.5.3.2.3-.4.4.5 1.6.5.8.4 1.4.7.2.2.7.3 1 .5 1.3-.6 1-1 .1-1.3-.6-.7.3 1.7 2.1.6-1 1.6-.8.7-.6-.4-.8.4-.7h.4l.7.4v.3l.3-.3-1.3-1.9-.3-.7-.7-.8L39 48v-1l.3-.4 1-.1-.3.9 1-.1-.1 1.3.5 1.3 1 1.3.8 1.3-.4 1.9.7 2.5V59l1 .5 1.1-1 .7-.6-.4-1.4 1-.4h1.2l.4 2 1.2 2.3 1 .6 1.1.6.7-.5 1.5.8 1.1.2 2.5-.6-.4 2.7-1.2 2.1-1.1 2.3-2.1-.4v2l1.6 2.6.7-.3 1.1 1 1.4 2.8 1.6 2.2.7 1.8-.3 1.6 1.3 1 .9 1 .7 1.6 1.7 1.7-.2 1.4.4 2.4.9 1.2 1.6.1 2.6-.9 6.4-2.6 3.3-2.2 3-2.7 1.8-3.7.3-.9-1.2-1-2.1-.5-1.3-2.4-3 2.6-1.6.2s-1-1-.8-1c.1.1.5-1.5.5-1.5l-.8-.1-.6.6-3.2-4.5.9-1.1 1.6-.3 2 3 3.6 1.6 1-1 1-.3.9 1.8h6.1l4-1.2 1.2 1.3 2.7 1.5-.4.7 1.5 1.3 1.5-.7.8-1.5.6 3.4 2.8 6.4 2.1 3 1.4 2.2 1.6-2.2 1-1.8-.6-5.7 3-4.8 1.4-2.8.8-2.4 1.5-1.2 1-1.1.8-.1 1.4 1.6 1.6 1.1.7 3 1.8-2.3 1 2.5 1 1.4.1 4.4 1.8 2.7.6 1.9 1.5.2-.9-4-2.3-2.2v-4.7l1 .3 1.6.7 1 1.3 1.3-3.9.1-3.6-3.3-4 .3-4 .6-.5 1.2-2.1.5-3 .4-2.8-1-3.8-.4-3.1-1.8-2.3-2.4-2.1-1-4-.8.3.2 1.3-.6-.8-.5.4-.8-.9.4-1 .5-2.7.6.5 1 .6 1.1 1.3 1.2 1.6-.2-2.3-1.1-1.2-1-.8-1.1-.4-1.2-3.1-1.2-2-3.5-5.7-3.7-3.6-3-2 .4 1-1 .4-1.8-2.4-2.7-2L102 12l-1-1.1L97.8 9 97 7.9l-1-1.3-3-1.1-2.6-1.2h-1.1l-2-.7-1-1-1.2.1.8 1.4 3 1.8 1 .7h-1.2l-.1 2.7 1.4.7.2 1.2.7.8h-3l-2 2 .3 1.4-2-2.6-1.7-.5-1.8.6.7.9-1.1 1.8s-1.5 3.9-1.7 4a34 34 0 01-2.3-.3v2.3l1.9 1.6-.1.4-4.7-1.2 1.1 1.2-.5.6h-3l-4.3 2.3-5-3.9-1.3-1-4 .7-4 2.1-6.9 3-2.2 3.6.6.7 2.2-1-.2 3.4 1.4.8 2.3-2.2L51 32v-1.6l1.2-1.7 4-2.3.2 1.2S54 29 53.9 29.2c0 .3-1 2.1-1 2.1l1.3 1.2 2.3-.2 1.2.4-1.5.6L54 33l-.5 1-.2 1.3-.9.3-.1-.9h-.4L50.6 36l-.7 1.7-1.7-.1-.4-.6-2.6.5-.4-.6-1.7-.4-.3-1 2-2.5-.2-.1-1.4.1-1.3 3-2 .3-2.4.9-1.8.6-2.4 1V38l-1 .9L31 38l-.8.8.5 1.1v2L29.4 44z"
       id="path6"
       style="stroke:#000000;stroke-opacity:1;fill:#000000;fill-opacity:1" />
    <path
       fill="#fff"
       d="M35.4 37.1l-2.7-.7h-.8l.8-.8.9-.1-.8-.7 1.8-1.2 1-.1.3-1.3-.8-.2-1.7 1.1-1.2.7-1.2-.1-.4-.9.8-.3 2.2-1.5.6-.4 1 .2 1.4-1.2 1.9-1.5.7.6-1.2.8 1 .3-1.7 1.2-.3 2-.2 1.7-.4.6.5.4zm97.9 35.5l-3 12.1.3.7v.9l1.8-1.5.6-3.5.8-3-.2-3 .5-2.1zm-9.9 13.1l2 1.4h1.5l.4 1.4.9.6.4-1.2.2 1-1.4 4-1.9-1.4-.7-2-1-1.3-1.6-1.3z"
       id="path8"
       style="stroke:#160000;stroke-opacity:1;fill:#000000;fill-opacity:1" />
    <path
       fill="#00a8f0"
       d="M54.2 48.7l-2.7 3.2-.7 1.2L52 55l2.2.8 1.6-1.5 2.3.8 1.5 1.4 4.4-.9-.4-1.3-1.2-1.3-2.5-2 1.5-2.4-3.6 1 1.6 1.1-3 .5-.2-1 .7-.5-1.8-1zm18.8.2l-3.2 1.7-.8.2.1 1.4 2.6 5-1 2.8 3 1.7 2.3-.2-.3-2.8-.6-1.7 1-1-.8-1-.7.3-.8-1L72 52l.5-1.2 2-.1 1.3.3-.1-.5-.8-.3-1-1.7z"
       id="path10"
       style="fill:#ffffff;fill-opacity:0.99545455;stroke:#160000;stroke-opacity:1" />
    <path
       fill="#fff"
       d="M53.2 5.8l-6.6 3.1-6 1.5-7.5 3.7-.5 2.2 5.6-1.7 5.7 1 6.5-1.7 4.4-2.5 4-.7.8-2-2.3-2.2-2.6-.6zM40.2 18l-3.3 2 4.2.8 1.4-.6z"
       id="path12"
       style="stroke:#160000;stroke-opacity:1;fill:#000000;fill-opacity:1" />
  </g>
  <g
     fill="none"
     id="g20">
    <circle
       cx="67.7"
       cy="67.7"
       r="66.7"
       stroke="#0a3416"
       stroke-width="2.1"
       id="circle16"
       style="stroke:#000000;stroke-opacity:1" />
    <circle
       cx="67.7"
       cy="67.7"
       r="65.6"
       stroke="#3e7e47"
       stroke-width="1.1"
       id="circle18"
       style="stroke:#000000;stroke-opacity:0" />
  </g>
</svg>
